<svg width="336" height="101" viewBox="0 0 336 101" fill="none" xmlns="http://www.w3.org/2000/svg">
<mask id="mask0_1147_80170" style="mask-type:alpha" maskUnits="userSpaceOnUse" x="0" y="0" width="336" height="101">
<path d="M45.5693 28.1825L41.369 29.8363L36.1186 22.1188L29.7132 28.4581L28.7681 28.0171L20 33.6398L20.42 41.7431C20.42 41.7431 26.668 52.6578 42.1041 50.7836L61.2679 44.5545C62.3705 44.2237 63.4731 44.0033 64.6281 43.9481L71.0861 43.6174C75.4439 44.6647 81.4293 43.6725 83.162 42.1841C83.162 42.0739 92.4551 41.5226 91.9826 33.254L84.9996 29.9465L83.9495 29.7811L81.5868 31.049L69.4585 16L59.9553 26.0327C59.9553 26.0327 58.2752 24.3238 56.6476 26.0327L49.6121 32.2617L50.5046 33.9155L45.5693 28.1825Z" fill="url(#paint0_linear_1147_80170)"/>
<path d="M34.754 25C34.754 25 32.3877 26.777 35.5069 32.1634C35.5606 34.9955 31.9037 37.9386 28.0854 40.8817L33.033 38.4384C33.033 38.4384 34.5389 37.9386 34.8077 39.8266L39.2714 45.6018C39.2714 45.6018 40.2932 47.6009 39.9167 48.8226C39.9167 48.8226 33.1944 49.6555 30.3979 47.712L33.786 43.1029L28.6232 46.7679C25.8267 45.1576 23.4605 42.8808 21.5782 40.2153L28.3543 34.6068L20.6102 38.716C20.6102 38.716 19.7497 36.828 20.0724 35.2731L27.3863 30.442C27.3863 30.442 27.8165 29.8312 29.2148 30.3865L34.754 25Z" fill="white"/>
<path d="M40.9282 31.0812L47.1781 41.9066C47.1781 41.9066 48.5055 44.8083 54.0364 42.3531C54.0364 42.4089 48.8927 41.516 50.4413 37.7216L47.0675 34.9315C46.2932 34.8199 45.5188 35.8243 44.6892 36.9403L46.2379 33.4807L43.9702 29.9652L40.9282 31.0812Z" fill="white"/>
<path d="M75.3857 42.353C75.3857 42.353 67.5872 38.5027 59.4568 41.6276L65.043 36.6613L58.0741 40.5674L55.5852 37.7773L61.6692 32.253L54.2578 36.8845L50.3862 33.3132L57.0233 27.8447C57.0233 27.8447 57.9082 26.3381 59.7887 27.8447L68.3615 19.642C68.3615 19.642 67.6425 21.7624 69.3018 24.7757C69.1912 24.7199 65.5408 29.184 65.5408 29.184L69.3571 26.9519C69.3571 26.9519 70.0761 26.7845 70.242 27.2867C70.408 27.1193 72.3991 31.4718 72.3991 31.4718C72.3991 31.4718 73.7818 33.5364 71.0163 35.2663C71.0163 35.2663 67.8638 37.1077 71.7354 39.6188L75.3857 42.353Z" fill="white"/>
<path d="M83.4755 32.1697C83.4202 32.0023 83.199 31.9465 83.0883 32.0581L75.1792 36.6338C75.1792 36.6338 74.6814 37.2476 75.3451 37.5266L78.8849 40.1492C78.8849 40.1492 80.3229 41.4884 85.1348 40.4282C85.1348 40.4282 87.6236 39.7586 88.6192 38.6984C88.7298 38.531 88.7298 38.3078 88.5639 38.1962L86.9599 36.857C86.1303 36.4663 85.1901 36.6338 84.5264 37.2476L81.9822 38.7542L85.7432 35.6851C85.7432 35.6293 85.3007 35.5177 83.4755 32.1697Z" fill="white"/>
<path d="M47.7314 18.526C45.4085 19.6978 42.9749 22.1531 42.8643 27.1194L45.4638 26.3381L48.6717 30.4674L55.2534 24.8873C55.2534 24.8873 57.521 22.3205 60.0652 23.2133C59.9546 23.0459 59.9546 19.4188 54.9769 17.968C52.5986 17.2426 49.9991 17.41 47.7314 18.526Z" fill="#E6A036"/>
<path d="M18.0859 43.6365V50.6674C21.681 50.5558 25.2208 50.6674 28.8158 51.0022C24.6124 49.6072 20.9067 47.0403 18.0859 43.6365Z" fill="#12682F"/>
<path d="M89.6555 41.795C88.1069 42.6321 86.337 43.1901 84.5671 43.3575C84.5671 43.3575 80.2531 46.3707 72.2886 45.0873C71.5696 44.9757 70.7953 44.9199 70.0763 44.9199C67.7533 44.9757 62.8308 45.1989 60.5079 46.1475L41.2052 52.174C40.6521 52.2857 40.099 52.3415 39.5459 52.3415C40.7627 52.5647 41.9795 52.7879 43.1963 53.0669C43.9706 53.2343 44.7449 53.3459 45.5745 53.4017C47.9528 53.5133 53.3177 53.7365 55.8619 53.3459C55.8619 53.3459 68.4723 51.337 72.7864 51.7834C73.1736 51.8392 73.5607 51.895 74.0032 51.895C76.8239 51.9508 87.8303 52.2857 92.8634 53.5691H93.5824L93.6377 43.0227L89.6555 41.795Z" fill="#12682F"/>
<path d="M50.8286 55.8011C50.8286 55.8011 78.5382 52.3415 93.5822 55.8011C93.5822 55.8011 92.8079 64.0597 84.7328 72.9321C84.7328 72.9321 72.6755 59.763 50.8286 55.8011Z" fill="#127D38"/>
<path d="M76.2151 79.405C76.2151 79.405 65.7618 80.8558 60.6734 82.9762C60.6734 82.9762 57.5208 84.3713 49.2798 84.5387C49.2798 84.4829 64.2131 88.0541 76.2151 79.405Z" fill="#37B8BA"/>
<path d="M78.3724 78.1774C66.0385 74.4387 52.7092 77.6752 52.7092 77.6752C63.8815 77.3962 68.1956 78.9028 68.1956 78.9028C44.5235 89.7282 32.5215 76.7823 32.5215 76.7823C33.7383 74.2155 45.4637 70.3652 45.4637 70.3652C36.2272 71.2022 30.7516 75.3315 30.7516 75.3315L28.6499 73.0995C56.083 58.368 83.5714 73.8807 83.5714 73.8807L78.3724 78.1774ZM70.1867 72.4299C70.1867 72.4299 51.4924 67.6868 39.8776 76.1127C39.9882 76.0569 63.2731 72.2625 70.1867 72.4299Z" fill="#37B8BA"/>
<path d="M39.5459 52.3972C39.5459 52.3972 42.5326 54.4619 50.3864 54.0713C50.8289 54.0713 51.2713 54.0155 51.6585 53.9039C55.4195 53.2901 75.8837 50.3326 93.5271 54.0713V45.0315L45.6298 52.3972H39.5459Z" fill="#12682F"/>
<path d="M18.4731 53.7923C18.4731 53.7923 49.5566 50.3884 80.1423 70.8116C80.1423 70.8116 55.2534 58.4796 26.9354 70.8116C26.9354 70.7558 23.4509 70.3652 18.4731 53.7923ZM19.8006 57.9774C19.8006 57.9774 20.7408 59.7072 30.3645 59.0376C30.3645 59.0376 37.2781 62.1066 40.0988 59.8188C36.725 60.5442 33.2406 59.8188 30.4751 57.7541C30.4751 57.7541 21.5704 58.089 18.6944 54.5177L19.8006 57.9774ZM30.1986 64.0597C32.4109 65.9011 35.4529 65.1757 35.4529 65.1757C39.767 63.2785 41.7581 64.1713 41.7581 64.1713C39.9329 61.716 35.121 63.9481 35.121 63.9481C33.8489 64.1713 32.5768 63.9481 31.526 63.2227C27.2119 61.3812 24.9996 63.6691 24.9996 63.6691C26.7694 63.1669 28.5946 63.2785 30.1986 64.0597ZM64.2687 64.9525C57.687 61.0464 49.8885 59.8746 42.4771 61.7718C54.0919 60.9906 64.2687 64.9525 64.2687 64.9525Z" fill="#37B8BA"/>
<path d="M56 7.88235C77.5882 7.88235 95.0588 25.4118 95.0588 47C95.0588 68.5882 77.5294 86.0588 55.9412 86.0588C34.3529 86.0588 16.8824 68.5294 16.8824 46.9412C16.8824 25.3529 34.4118 7.88235 56 7.88235ZM56 7C33.8824 7 16 24.8824 16 47C16 69.1176 33.8824 87 56 87C78.1176 87 96 69.1176 96 47C96 24.8824 78.0588 7 56 7Z" fill="#0C3955"/>
<path d="M110.103 38.3246L113.22 43.0644L116.336 38.3246H122.05L116.271 46.7003L122.504 55.7902H116.726L113.22 50.6609L109.714 55.7902H104L110.233 46.8951L104.454 38.3246H110.103Z" fill="#0D3956"/>
<path d="M128.413 55.0111C126.919 54.2319 125.815 53.1282 124.971 51.7647C124.127 50.4012 123.738 48.8429 123.738 47.0899C123.738 45.3368 124.127 43.7786 124.971 42.4151C125.815 41.0516 126.984 39.9478 128.413 39.1687C129.906 38.3896 131.529 38 133.412 38C135.295 38 136.918 38.3896 138.411 39.1687C139.905 39.9478 141.009 41.0516 141.853 42.4151C142.697 43.7786 143.086 45.3368 143.086 47.0899C143.086 48.8429 142.697 50.4012 141.853 51.7647C141.009 53.1282 139.84 54.2319 138.411 55.0111C136.918 55.7902 135.295 56.1798 133.412 56.1798C131.529 56.1798 129.841 55.7902 128.413 55.0111ZM135.749 51.44C136.464 51.0505 137.048 50.4661 137.438 49.687C137.827 48.9079 138.087 48.0638 138.087 47.0899C138.087 46.116 137.892 45.2719 137.438 44.4928C136.983 43.7136 136.464 43.1293 135.749 42.7397C135.035 42.3502 134.256 42.0904 133.347 42.0904C132.438 42.0904 131.659 42.2852 130.945 42.7397C130.231 43.1293 129.646 43.7136 129.257 44.4928C128.867 45.2719 128.607 46.116 128.607 47.0899C128.607 48.0638 128.802 48.9079 129.257 49.687C129.646 50.4661 130.231 51.0505 130.945 51.44C131.659 51.8296 132.438 52.0893 133.347 52.0893C134.256 52.0893 135.035 51.8296 135.749 51.44Z" fill="#0D3956"/>
<path d="M160.357 38.3896V55.8551H155.488V49.9467C154.124 50.4012 152.891 50.596 151.787 50.596C149.32 50.596 147.502 50.0117 146.203 48.843C144.905 47.6743 144.255 45.9861 144.255 43.7786V38.3896H149.125V43.1942C149.125 45.4667 150.229 46.5705 152.436 46.5705C153.605 46.5705 154.644 46.3757 155.553 45.9861V38.3896H160.357ZM162.76 51.8946V59.2963H158.215V55.7902H155.553V51.8946H162.76Z" fill="#0D3956"/>
<path d="M177.693 52.414H170.291L168.928 55.7902H163.863L171.59 38.3246H176.459L184.186 55.7902H179.056L177.693 52.414ZM176.264 48.778L173.992 43.1942L171.72 48.778H176.264Z" fill="#0D3956"/>
<path d="M197.041 55.0111C195.548 54.2319 194.444 53.1282 193.6 51.7647C192.756 50.4012 192.367 48.8429 192.367 47.0899C192.367 45.3368 192.756 43.7786 193.6 42.4151C194.444 41.0516 195.613 39.9478 197.041 39.1687C198.535 38.3896 200.158 38 202.041 38C203.859 38 205.547 38.3896 207.04 39.1687C208.534 39.9478 209.637 41.0516 210.482 42.4151C211.326 43.7786 211.715 45.3368 211.715 47.0899C211.715 48.8429 211.326 50.4012 210.482 51.7647C209.637 53.1282 208.469 54.2319 207.04 55.0111C205.547 55.7902 203.924 56.1798 202.041 56.1798C200.223 56.1798 198.535 55.7902 197.041 55.0111ZM204.443 51.44C205.157 51.0505 205.742 50.4661 206.131 49.687C206.521 48.9079 206.781 48.0638 206.781 47.0899C206.781 46.116 206.586 45.2719 206.131 44.4928C205.742 43.7136 205.157 43.1293 204.443 42.7397C203.729 42.3502 202.95 42.0904 202.041 42.0904C201.132 42.0904 200.353 42.2852 199.639 42.7397C198.924 43.1293 198.34 43.7136 197.95 44.4928C197.561 45.2719 197.301 46.116 197.301 47.0899C197.301 48.0638 197.496 48.9079 197.95 49.687C198.34 50.4661 198.924 51.0505 199.639 51.44C200.353 51.8296 201.132 52.0893 202.041 52.0893C202.95 52.0893 203.729 51.8296 204.443 51.44Z" fill="#0D3956"/>
<path d="M214.377 38.3896H228.986V42.2203H219.247V45.0122H223.727C225.804 45.0122 227.427 45.4667 228.596 46.3757C229.7 47.2847 230.284 48.5832 230.284 50.2064C230.284 51.9595 229.635 53.323 228.401 54.3618C227.168 55.3357 225.35 55.8551 223.077 55.8551H214.377V38.3896ZM222.753 52.2841C223.597 52.2841 224.246 52.0893 224.636 51.7647C225.09 51.4401 225.285 50.9856 225.285 50.3363C225.285 49.1027 224.441 48.5183 222.753 48.5183H219.247V52.2841H222.753Z" fill="#0D3956"/>
<path d="M232.817 38.3896H237.686V48.6482L244.893 38.3896H249.503V55.8551H244.634V45.5966L237.427 55.7902H232.752V38.3896H232.817Z" fill="#0D3956"/>
<path d="M274.37 42.2852H266.449V55.7902H261.58V38.3896H274.37V42.2852Z" fill="#0D3956"/>
<path d="M285.408 52.414H278.006L276.643 55.7902H271.579L279.305 38.3246H284.175L291.901 55.7902H286.772L285.408 52.414ZM283.98 48.778L281.707 43.1942L279.435 48.778H283.98Z" fill="#0D3956"/>
<path d="M306.64 39.1687C307.808 39.6881 308.717 40.4673 309.302 41.4412C309.951 42.4151 310.275 43.5838 310.275 44.8824C310.275 46.1809 309.951 47.3496 309.302 48.3235C308.652 49.2974 307.743 50.0116 306.64 50.5311C305.536 51.0505 304.107 51.3102 302.549 51.3102H299.497V55.8551H294.563V38.3896H302.549C304.107 38.3896 305.471 38.6493 306.64 39.1687ZM304.497 46.7003C305.016 46.2458 305.276 45.6615 305.276 44.8174C305.276 43.9734 305.016 43.389 304.497 42.9345C303.977 42.48 303.198 42.2852 302.224 42.2852H299.497V47.4145H302.224C303.263 47.3496 303.977 47.1548 304.497 46.7003Z" fill="#0D3956"/>
<path d="M328.39 55.7902V46.5705L323.91 54.1021H321.703L317.223 46.7653V55.7902H312.678V38.3896H316.768L322.871 48.4534L328.845 38.3896H332.935L333 55.8551L328.39 55.7902Z" fill="#0D3956"/>
</mask>
<g mask="url(#mask0_1147_80170)">
<rect width="336" height="97" fill="white"/>
</g>
<defs>
<linearGradient id="paint0_linear_1147_80170" x1="55.9966" y1="50.9822" x2="55.9966" y2="15.978" gradientUnits="userSpaceOnUse">
<stop stop-color="#286F76"/>
<stop offset="0.45" stop-color="#3CABBE"/>
<stop offset="1" stop-color="#40B5CA"/>
</linearGradient>
</defs>
</svg>
